# xmcd CD database file
#
# Track frame offsets:
#	150
#	23451
#	42610
#	62465
#	77314
#	92874
#	110956
#	127412
#	144032
#	162931
#	177955
#	189793
#	202287
#	220003
#
# Disc length: 3332 seconds
#
# Revision: 1
# Processed by: cddbd v1.5.2PL0 Copyright (c) Steve Scherf et al.
# Submitted via: CDex 1.51
#
DISCID=c00d020e
DTITLE=MILIONARIO E JOSÉ RICO - VOL.29 - Atravessando Gerações
DYEAR=2008
DGENRE=Sertanejo
TTITLE0=VONTADE DIVIDIDA
TTITLE1=SOLIDÃO
TTITLE2=O ULTIMO JULGAMENTO
TTITLE3=MAJESTADE A MULHER
TTITLE4=TRISTEZA
TTITLE5=DECIDA
TTITLE6=O DIA DA VITORIA
TTITLE7=POUT PORRI  - DE LONGE
TTITLE8=A CARTA
TTITLE9=ANJO LOIRO
TTITLE10=A GARÇA PANTANEIRA
TTITLE11=DO MUNDO NADA SE LEVA
TTITLE12=POUT PORRI - VIVA A VIDA - O TROPEIRO
TTITLE13=POUT PORRI - SONHEI COM VOCÊ - ESTRADA DA VIDA
EXTD=YEAR: 2008
EXTT0=
EXTT1=
EXTT2=
EXTT3=
EXTT4=
EXTT5=
EXTT6=
EXTT7=
EXTT8=
EXTT9=
EXTT10=
EXTT11=
EXTT12=
EXTT13=
PLAYORDER=
